<?xml version="1.0" encoding="UTF-8" standalone="no"?>
<svg
   xmlns:dc="http://purl.org/dc/elements/1.1/"
   xmlns:cc="http://creativecommons.org/ns#"
   xmlns:rdf="http://www.w3.org/1999/02/22-rdf-syntax-ns#"
   xmlns:svg="http://www.w3.org/2000/svg"
   xmlns="http://www.w3.org/2000/svg"
   xmlns:sodipodi="http://sodipodi.sourceforge.net/DTD/sodipodi-0.dtd"
   xmlns:inkscape="http://www.inkscape.org/namespaces/inkscape"
   width="550"
   height="550"
   id="svg2"
   sodipodi:version="0.32"
   inkscape:version="0.46"
   sodipodi:docname="logo.svg"
   inkscape:output_extension="org.inkscape.output.svg.inkscape"
   version="1.0">
  <metadata
     id="metadata111">
    <rdf:RDF>
      <cc:Work
         rdf:about="">
        <dc:format>image/svg+xml</dc:format>
        <dc:type
           rdf:resource="http://purl.org/dc/dcmitype/StillImage" />
      </cc:Work>
    </rdf:RDF>
  </metadata>
  <defs
     id="defs109">
    <inkscape:perspective
       sodipodi:type="inkscape:persp3d"
       inkscape:vp_x="0 : 323.75 : 1"
       inkscape:vp_y="0 : 1000 : 0"
       inkscape:vp_z="643.75 : 323.75 : 1"
       inkscape:persp3d-origin="321.875 : 215.83333 : 1"
       id="perspective113" />
  </defs>
  <sodipodi:namedview
     inkscape:window-height="998"
     inkscape:window-width="1680"
     inkscape:pageshadow="2"
     inkscape:pageopacity="0.0"
     guidetolerance="10.0"
     gridtolerance="10.0"
     objecttolerance="10.0"
     borderopacity="1.0"
     bordercolor="#666666"
     pagecolor="#ffffff"
     id="base"
     showgrid="false"
     inkscape:zoom="1.0090605"
     inkscape:cx="249.66026"
     inkscape:cy="281.08201"
     inkscape:window-x="-8"
     inkscape:window-y="-8"
     inkscape:current-layer="svg2" />
  <g
     id="g2550"
     transform="translate(0,16.834554)">
    <g
       transform="translate(18.7602,-0.130029)"
       id="g2536">
      <g
         transform="translate(53.3198,60.76)"
         style="fill:#c0c0c0;fill-rule:evenodd;stroke:#000000;stroke-width:6.48000031pt;stroke-linecap:round;stroke-linejoin:round;stroke-dasharray:none"
         id="g4">
        <path
           d="M 94.8002,372.24 C 94.8002,372.24 71.2802,355.44 71.2802,355.44 C 71.2802,355.44 71.2802,355.2 71.2802,355.2 C 71.2802,355.2 92.8802,316.56 92.8802,316.56 C 84.4802,308.64 77.2802,300.24 70.8002,290.88 C 70.8002,290.88 28.8001,304.8 28.8001,304.8 C 28.8001,304.8 15.3601,279.36 15.3601,279.36 C 15.3601,279.36 15.3601,279.12 15.3601,279.12 C 15.3601,279.12 52.0802,254.16 52.0802,254.16 C 48.2402,243.36 45.6001,232.56 44.1602,221.28 C 44.1602,221.28 0.48,214.8 0.48,214.8 C 0.48,214.8 0,185.76 0,185.76 C 0,185.76 0.24,185.76 0.24,185.76 C 0.24,185.76 44.4002,180.48 44.4002,180.48 C 45.8401,168.96 48.4802,158.16 52.3202,147.6 C 52.3202,147.6 16.3201,121.68 16.3201,121.68 C 16.3201,121.68 29.0401,96 29.0401,96 C 29.0401,96 29.0401,95.76 29.0401,95.76 C 29.0401,95.76 70.8002,111.12 70.8002,111.12 C 77.2802,101.76 84.4802,93.36 92.8802,85.44 C 92.8802,85.44 72.4802,46.08 72.4802,46.08 C 72.4802,46.08 95.5202,28.7998 95.5202,28.7998 C 95.5202,28.7998 95.7602,29.0398 95.7602,29.0398 C 95.7602,29.0398 126,61.44 126,61.44 C 136.08,55.92 146.16,51.84 157.44,48.24 C 157.44,48.24 156.96,4.0798 156.96,4.0798 C 156.96,4.0798 186,0 186,0 C 186,0 185.76,96.48 185.76,96.48 C 148.56,101.76 117.84,126.96 103.92,160.8 C 103.92,160.8 301.92,160.8 301.92,160.8 C 288,126.96 257.28,101.76 220.08,96.48 C 220.08,96.48 219.84,0 219.84,0 C 219.84,0 248.88,4.0798 248.88,4.0798 C 248.88,4.0798 248.4,48.24 248.4,48.24 C 259.68,51.84 269.76,55.92 279.84,61.44 C 279.84,61.44 310.08,29.0398 310.08,29.0398 C 310.08,29.0398 310.32,28.7998 310.32,28.7998 C 310.32,28.7998 333.36,46.08 333.36,46.08 C 333.36,46.08 312.96,85.44 312.96,85.44 C 321.36,93.36 328.56,101.76 335.04,111.12 C 335.04,111.12 376.8,95.76 376.8,95.76 C 376.8,95.76 376.8,96 376.8,96 C 376.8,96 389.52,121.68 389.52,121.68 C 389.52,121.68 353.52,147.6 353.52,147.6 C 357.36,158.16 360,168.96 361.44,180.48 C 361.44,180.48 405.6,185.76 405.6,185.76 C 405.6,185.76 405.84,185.76 405.84,185.76 C 405.84,185.76 405.36,214.8 405.36,214.8 C 405.36,214.8 361.68,221.28 361.68,221.28 C 360.24,232.56 357.6,243.36 353.76,254.16 C 353.76,254.16 390.48,279.12 390.48,279.12 C 390.48,279.12 390.48,279.36 390.48,279.36 C 390.48,279.36 377.04,304.8 377.04,304.8 C 377.04,304.8 335.04,290.88 335.04,290.88 C 328.56,300.24 321.36,308.64 312.96,316.56 C 312.96,316.56 334.56,355.2 334.56,355.2 C 334.56,355.2 334.56,355.44 334.56,355.44 C 334.56,355.44 311.04,372.24 311.04,372.24 C 311.04,372.24 280.08,340.56 280.08,340.56 C 270,346.08 259.92,350.16 248.64,353.52 C 248.64,353.52 248.64,398.64 248.64,398.64 C 248.64,398.64 219.84,403.2 219.84,403.2 C 219.84,403.2 220.08,305.76 220.08,305.76 C 257.04,300 287.52,275.04 301.68,240.96 C 301.68,240.96 104.16,240.96 104.16,240.96 C 118.32,275.04 148.8,300 185.76,305.76 C 185.76,305.76 186,403.2 186,403.2 C 186,403.2 157.2,398.64 157.2,398.64 C 157.2,398.64 157.2,353.52 157.2,353.52 C 145.92,350.16 135.84,346.08 125.76,340.56 C 125.76,340.56 94.8002,372.24 94.8002,372.24 z"
           id="path6" />
      </g>
    </g>
    <g
       transform="translate(18.5951,-0.130029)"
       id="g2540">
      <g
         transform="translate(66.2798,177.64)"
         style="fill:#000000;fill-rule:evenodd;stroke:#ffffff;stroke-width:5.27999992pt;stroke-linecap:round;stroke-linejoin:round;stroke-dasharray:none"
         id="g8">
        <path
           d="M 82.5602,17.52 C 82.5602,17.52 82.5602,120.48 82.5602,120.48 C 82.5602,132.96 84.4802,133.92 93.1202,138.96 C 97.2002,141.12 95.0402,148.32 95.0402,151.44 C 95.0402,151.44 38.1602,151.44 38.1602,151.44 C 38.1602,147.36 36.0002,141.12 41.2802,138 C 49.6802,133.92 50.6402,129.84 50.6402,120.48 C 50.6402,120.48 50.6402,17.52 50.6402,17.52 C 39.1202,17.52 23.28,15.36 16.8,27.84 C 10.56,39.12 18,37.2 0,37.2 C 0,37.2 0,0 0,0 C 6.24,0.96 11.52,2.16 16.8,2.16 C 16.8,2.16 116.4,2.16 116.4,2.16 C 121.68,2.16 126.96,0.96 133.2,0 C 133.2,0 133.2,37.2 133.2,37.2 C 116.4,37.2 121.68,39.12 116.4,27.84 C 109.92,15.36 94.0802,17.52 82.5602,17.52 z"
           id="path10" />
      </g>
      <g
         transform="translate(196.6,180.28)"
         style="fill:#000000;fill-rule:evenodd;stroke:#ffffff;stroke-width:5.04000015pt;stroke-linecap:round;stroke-linejoin:round;stroke-dasharray:none"
         id="g12">
        <path
           d="M 9.36,19.68 C 9.36,1.2 41.04,0 41.04,19.68 C 41.04,39.36 9.36,38.4 9.36,19.68 z M 41.04,125.04 C 41.04,132.24 42.24,133.2 47.52,137.52 C 52.8,139.44 50.64,144.72 50.64,148.8 C 50.64,148.8 0.96,148.8 0.96,148.8 C 0.96,143.52 0,139.44 5.28,136.32 C 10.56,134.4 11.52,130.32 11.52,125.04 C 11.52,125.04 11.52,86.88 11.52,86.88 C 11.52,78.48 10.56,78.48 4.08,74.4 C 0,71.28 0.96,67.2 0.96,62.16 C 0.96,62.16 41.04,62.16 41.04,62.16 C 41.04,62.16 41.04,125.04 41.04,125.04 z"
           id="path14" />
      </g>
      <g
         transform="translate(243.88,176.68)"
         style="fill:#000000;fill-rule:evenodd;stroke:#ffffff;stroke-width:5.27999992pt;stroke-linecap:round;stroke-linejoin:round;stroke-dasharray:none"
         id="g16">
        <path
           d="M 82.56,17.52 C 82.56,17.52 82.56,120.72 82.56,120.72 C 82.56,133.2 84.72,134.16 93.12,139.2 C 97.44,141.36 95.28,148.56 95.28,151.68 C 95.28,151.68 38.16,151.68 38.16,151.68 C 38.16,147.6 36,141.36 41.28,138.24 C 49.68,134.16 50.88,130.08 50.88,120.72 C 50.88,120.72 50.88,17.52 50.88,17.52 C 39.12,17.52 23.28,15.36 17.04,27.84 C 10.56,39.12 18,37.2 0,37.2 C 0,37.2 0,0 0,0 C 6.24,0.96 11.76,2.16 17.04,2.16 C 17.04,2.16 116.4,2.16 116.4,2.16 C 121.68,2.16 127.2,0.96 133.44,0 C 133.44,0 133.44,37.2 133.44,37.2 C 116.4,37.2 121.68,39.12 116.4,27.84 C 110.16,15.36 94.32,17.52 82.56,17.52 z"
           id="path18" />
      </g>
      <g
         transform="translate(349.24,240.52)"
         style="fill:#000000;fill-rule:evenodd;stroke:#ffffff;stroke-width:5.04000015pt;stroke-linecap:round;stroke-linejoin:round;stroke-dasharray:none"
         id="g20">
        <path
           d="M 32.88,43.2 C 32.88,54.72 34.8,66 46.56,71.04 C 61.44,78.24 78.48,69.12 89.04,58.8 C 97.44,68.16 101.76,69.12 90,78.24 C 67.68,94.8 30.72,96.96 12.72,73.2 C 0,58.8 0,36 11.52,20.64 C 20.16,6.24 36.96,0 54,0 C 68.88,0 83.76,5.04 92.16,17.52 C 97.44,24.72 97.44,34.08 97.44,43.2 C 97.44,43.2 32.88,43.2 32.88,43.2 z M 34.8,28.8 C 34.8,28.8 67.68,28.8 67.68,28.8 C 65.76,19.68 62.4,12.48 50.88,13.44 C 41.28,13.44 36,20.64 34.8,28.8 z"
           id="path22" />
      </g>
    </g>
    <g
       transform="translate(16.830134,-0.130029)"
       id="g2490">
      <g
         transform="translate(199,470)"
         style="fill:#000000;fill-rule:evenodd;stroke:#000000;stroke-width:0.24000001pt;stroke-linecap:round;stroke-linejoin:round;stroke-dasharray:none"
         id="g24">
        <path
           d="M 1.68,0 C 1.68,0 0,6.48 0,6.48 C 0,6.48 11.28,9.36 11.28,9.36 C 11.28,9.36 3.12,39.119 3.12,39.119 C 3.12,39.119 10.8,41.279 10.8,41.279 C 10.8,41.279 18.72,11.52 18.72,11.52 C 18.72,11.52 29.76,14.399 29.76,14.399 C 29.76,14.399 31.679,7.919 31.679,7.919 C 31.679,7.919 1.68,0 1.68,0 C 1.68,0 1.68,0 1.68,0 z"
           id="path26" />
      </g>
      <g
         transform="matrix(0.9961947,-8.7155743e-2,8.7155743e-2,0.9961947,241.395,478.804)"
         style="fill:#000000;fill-rule:evenodd;stroke:#000000;stroke-width:0.24000001pt;stroke-linecap:round;stroke-linejoin:round;stroke-dasharray:none"
         id="g28">
        <path
           d="M 0.72,0 C 0.72,0 0,6.72 0,6.72 C 0,6.72 11.76,7.68 11.76,7.68 C 11.76,7.68 8.88,38.4 8.88,38.4 C 8.88,38.4 16.8,39.12 16.8,39.12 C 16.8,39.12 19.439,8.4 19.439,8.4 C 19.439,8.4 30.959,9.36 30.959,9.36 C 30.959,9.36 31.439,2.64 31.439,2.64 C 31.439,2.64 0.719,0 0.719,0 C 0.719,0 0.72,0 0.72,0 z"
           id="path30" />
      </g>
      <g
         transform="matrix(0.9743701,-0.2249511,0.2249511,0.9743701,285.2944,477.30143)"
         style="fill:#000000;fill-rule:evenodd;stroke:none;stroke-width:18.28500061pt;stroke-linecap:butt;stroke-linejoin:miter;stroke-dasharray:none"
         id="g104">
        <path
           d="M 20.7859,24.3469 C 20.7859,24.3469 33.0422,0 33.0422,0 C 33.0422,0 24.0984,0 24.0984,0 C 24.0984,0 16.8109,17.1422 16.8109,17.1422 C 16.8109,17.1422 8.86094,0 8.86094,0 C 8.86094,0 0,0 0,0 C 0,0 12.8359,24.3469 12.8359,24.3469 C 12.8359,24.3469 12.8359,38.6734 12.8359,38.6734 C 12.8359,38.6734 20.7859,38.6734 20.7859,38.6734 C 20.7859,38.6734 20.7859,24.3469 20.7859,24.3469 z"
           id="path106" />
      </g>
    </g>
    <g
       transform="translate(17.261069,-0.130029)"
       id="g2498">
      <g
         transform="translate(0.279785,199.96)"
         style="fill:#000000;fill-rule:evenodd;stroke:#000000;stroke-width:0.24000001pt;stroke-linecap:round;stroke-linejoin:round;stroke-dasharray:none"
         id="g32">
        <path
           d="M 0,33.84 C 0,33.84 7.19995,35.28 7.19995,35.28 C 7.19995,35.28 9.59985,22.56 9.59985,22.56 C 9.59985,22.56 43.4397,28.56 43.4397,28.56 C 43.4397,28.56 44.8796,19.92 44.8796,19.92 C 44.8796,19.92 11.0398,14.16 11.0398,14.16 C 11.0398,14.16 13.1997,1.44 13.1997,1.44 C 13.1997,1.44 5.75976,0 5.75976,0 C 5.75976,0 0,33.84 0,33.84 z"
           id="path34" />
      </g>
      <g
         transform="translate(8.19995,182.92)"
         style="fill:#000000;fill-rule:evenodd;stroke:#000000;stroke-width:0.24000001pt;stroke-linecap:round;stroke-linejoin:round;stroke-dasharray:none"
         id="g36">
        <path
           d="M 0,8.4 C 0,8.4 40.3198,19.92 40.3198,19.92 C 40.3198,19.92 42.7197,11.76 42.7197,11.76 C 42.7197,11.76 2.63985,0 2.63985,0 C 2.63985,0 0,8.4 0,8.4 z"
           id="path38" />
      </g>
      <g
         transform="translate(15.6399,141.401)"
         style="fill:#000000;fill-rule:evenodd;stroke:#000000;stroke-width:0.24000001pt;stroke-linecap:round;stroke-linejoin:round;stroke-dasharray:none"
         id="g40">
        <path
           d="M 0,28.319 C 0,28.319 38.1599,45.359 38.1599,45.359 C 38.1599,45.359 51.3599,16.079 51.3599,16.079 C 51.3599,16.079 44.1599,12.959 44.1599,12.959 C 44.1599,12.959 34.8,34.319 34.8,34.319 C 34.8,34.319 24.9602,29.999 24.9602,29.999 C 24.9602,29.999 33.3601,11.279 33.3601,11.279 C 33.3601,11.279 26.6401,8.159 26.6401,8.159 C 26.6401,8.159 18.2402,27.119 18.2402,27.119 C 18.2402,27.119 10.3203,23.519 10.3203,23.519 C 10.3203,23.519 19.4402,2.88 19.4402,2.88 C 19.4402,2.88 12.7202,0 12.7202,0 C 12.7202,0 0.0002,28.319 0.0002,28.319 C 0.0002,28.319 0,28.319 0,28.319 z"
           id="path42" />
      </g>
      <g
         transform="translate(33.3997,103)"
         style="fill:#000000;fill-rule:evenodd;stroke:#000000;stroke-width:0.24000001pt;stroke-linecap:round;stroke-linejoin:round;stroke-dasharray:none"
         id="g44">
        <path
           d="M 0.0002,28.56 C 0.0002,28.56 6.2402,32.64 6.2402,32.64 C 6.2402,32.64 13.2002,22.08 13.2002,22.08 C 13.2002,22.08 42,41.04 42,41.04 C 42,41.04 46.7998,33.84 46.7998,33.84 C 46.7998,33.84 18,14.88 18,14.88 C 18,14.88 25.1999,4.08 25.1999,4.08 C 25.1999,4.08 18.9599,0 18.9599,0 C 18.9599,0 0,28.56 0,28.56 C 0,28.56 0.0002,28.56 0.0002,28.56 z"
           id="path46" />
      </g>
      <g
         transform="translate(64.1199,70.5999)"
         style="fill:#000000;fill-rule:evenodd;stroke:#000000;stroke-width:0.24000001pt;stroke-linecap:round;stroke-linejoin:round;stroke-dasharray:none"
         id="g48">
        <path
           d="M 8.6399,8.6401 C 0,17.52 0.48,29.04 10.0801,38.6401 C 19.6799,48.0001 31.4399,48.4801 39.8401,39.6001 C 48.4801,30.7201 47.7601,18.9599 38.1601,9.6001 C 28.56,0.2399 17.04,0 8.6399,8.6401 z M 13.9199,13.9199 C 18.7199,8.6401 25.4399,9.3601 32.1599,15.84 C 38.8801,22.56 39.6001,29.04 34.56,34.3201 C 29.52,39.3601 22.8,38.6401 16.0801,32.1601 C 9.6001,25.6799 8.8799,18.9599 13.9199,13.9199 z"
           id="path50" />
      </g>
      <g
         transform="translate(95.5596,38.6802)"
         style="fill:#000000;fill-rule:evenodd;stroke:#000000;stroke-width:0.24000001pt;stroke-linecap:round;stroke-linejoin:round;stroke-dasharray:none"
         id="g52">
        <path
           d="M 0.0002,19.9197 C 0.0002,19.9197 4.32,25.9194 4.32,25.9194 C 4.32,25.9194 14.8794,18.4795 14.8794,18.4795 C 14.8794,18.4795 34.5594,46.5593 34.5594,46.5593 C 34.5594,46.5593 41.7594,41.5195 41.7594,41.5195 C 41.7594,41.5195 21.8394,13.6797 21.8394,13.6797 C 21.8394,13.6797 32.3994,5.9997 32.3994,5.9997 C 32.3994,5.9997 28.0794,0 28.0794,0 C 28.0794,0 0,19.9199 0,19.9199 C 0,19.9199 0.0002,19.9197 0.0002,19.9197 z"
           id="path54" />
      </g>
      <g
         transform="translate(134.2,19.2402)"
         style="fill:#000000;fill-rule:evenodd;stroke:#000000;stroke-width:0.24000001pt;stroke-linecap:round;stroke-linejoin:round;stroke-dasharray:none"
         id="g56">
        <path
           d="M 0,13.4397 C 0,13.4397 18.24,51.3597 18.24,51.3597 C 18.24,51.3597 47.04,37.4397 47.04,37.4397 C 47.04,37.4397 43.68,30.4798 43.68,30.4798 C 43.68,30.4798 22.56,40.5596 22.56,40.5596 C 22.56,40.5596 17.76,30.9598 17.76,30.9598 C 17.76,30.9598 36.48,22.0799 36.48,22.0799 C 36.48,22.0799 33.36,15.5999 33.36,15.5999 C 33.36,15.5999 14.64,24.4798 14.64,24.4798 C 14.64,24.4798 11.04,16.3199 11.04,16.3199 C 11.04,16.3199 31.2,6.72 31.2,6.72 C 31.2,6.72 28.081,0 28.081,0 C 28.081,0 0.001,13.44 0.001,13.44 C 0.001,13.44 0,13.4397 0,13.4397 z"
           id="path58" />
      </g>
      <g
         transform="translate(177.16,5.80054)"
         style="fill:#000000;fill-rule:evenodd;stroke:#000000;stroke-width:0.24000001pt;stroke-linecap:round;stroke-linejoin:round;stroke-dasharray:none"
         id="g60">
        <path
           d="M 0,8.15946 C 0,8.15946 10.8,48.4793 10.8,48.4793 C 10.8,48.4793 41.76,40.0794 41.76,40.0794 C 41.76,40.0794 39.6,32.6394 39.6,32.6394 C 39.6,32.6394 17.04,38.8794 17.04,38.8794 C 17.04,38.8794 14.16,28.5596 14.16,28.5596 C 14.16,28.5596 34.08,23.0398 34.08,23.0398 C 34.08,23.0398 32.16,16.0799 32.16,16.0799 C 32.16,16.0799 12.24,21.3597 12.24,21.3597 C 12.24,21.3597 9.84,12.9598 9.84,12.9598 C 9.84,12.9598 31.68,7.19996 31.68,7.19996 C 31.68,7.19996 29.76,0 29.76,0 C 29.76,0 0,8.15986 0,8.15986 C 0,8.15986 0,8.15946 0,8.15946 z"
           id="path62" />
      </g>
      <g
         transform="translate(222.28,0.280029)"
         style="fill:#000000;fill-rule:evenodd;stroke:#000000;stroke-width:0.24000001pt;stroke-linecap:round;stroke-linejoin:round;stroke-dasharray:none"
         id="g64">
        <path
           d="M 0,2.87988 C 0,2.87988 3.36,44.6397 3.36,44.6397 C 3.36,44.6397 12,43.9197 12,43.9197 C 12,43.9197 10.8,29.2798 10.8,29.2798 C 10.8,29.2798 15.359,24.48 15.359,24.48 C 15.359,24.48 30.959,42.4798 30.959,42.4798 C 30.959,42.4798 41.519,41.5198 41.519,41.5198 C 41.519,41.5198 20.879,18.24 20.879,18.24 C 20.879,18.24 36.719,0 36.719,0 C 36.719,0 25.919,0.719971 25.919,0.719971 C 25.919,0.719971 10.079,19.68 10.079,19.68 C 10.079,19.68 8.639,2.16016 8.639,2.16016 C 8.639,2.16016 0,2.88013 0,2.88013 C 0,2.88013 0,2.87988 0,2.87988 z"
           id="path66" />
      </g>
      <g
         transform="translate(267.64,0.759766)"
         style="fill:#000000;fill-rule:evenodd;stroke:#000000;stroke-width:0.24000001pt;stroke-linecap:round;stroke-linejoin:round;stroke-dasharray:none"
         id="g68">
        <path
           d="M 4.56,0 C 4.56,0 0,41.5197 0,41.5197 C 0,41.5197 8.4,42.4797 8.4,42.4797 C 8.4,42.4797 10.32,27.8398 10.32,27.8398 C 10.32,27.8398 15.36,24 15.36,24 C 15.36,24 27.36,44.6399 27.36,44.6399 C 27.36,44.6399 38.159,45.8398 38.159,45.8398 C 38.159,45.8398 22.079,18.9599 22.079,18.9599 C 22.079,18.9599 41.039,4.08007 41.039,4.08007 C 41.039,4.08007 30.24,2.88012 30.24,2.88012 C 30.24,2.88012 11.28,18.4799 11.28,18.4799 C 11.28,18.4799 13.2,0.960204 13.2,0.960204 C 13.2,0.960204 4.56,0.000244 4.56,0.000244 C 4.56,0.000244 4.56,0 4.56,0 z"
           id="path70" />
      </g>
      <g
         transform="translate(304.84,11.3193)"
         style="fill:#000000;fill-rule:evenodd;stroke:#000000;stroke-width:0.24000001pt;stroke-linecap:round;stroke-linejoin:round;stroke-dasharray:none"
         id="g72">
        <path
           d="M 27.84,0.0005 C 27.84,0.0005 0,35.2803 0,35.2803 C 0,35.2803 8.88,37.9202 8.88,37.9202 C 8.88,37.9202 14.4,30.4803 14.4,30.4803 C 14.4,30.4803 31.44,35.76 31.44,35.76 C 31.44,35.76 31.68,44.8799 31.68,44.8799 C 31.68,44.8799 40.319,47.5198 40.319,47.5198 C 40.319,47.5198 37.44,2.8799 37.44,2.8799 C 37.44,2.8799 27.84,0 27.84,0 C 27.84,0 27.84,0.0005 27.84,0.0005 z M 30.24,8.6407 C 30.24,8.6407 30.96,28.5606 30.96,28.5606 C 30.96,28.5606 18.72,24.4807 18.72,24.4807 C 18.72,24.4807 30.24,8.6409 30.24,8.6409 C 30.24,8.6409 30.24,8.6407 30.24,8.6407 z"
           id="path74" />
      </g>
      <g
         transform="translate(349.24,24.0398)"
         style="fill:#000000;fill-rule:evenodd;stroke:#000000;stroke-width:0.24000001pt;stroke-linecap:round;stroke-linejoin:round;stroke-dasharray:none"
         id="g76">
        <path
           d="M 19.92,0 C 19.92,0 0,36.72 0,36.72 C 0,36.72 7.68,41.04 7.68,41.04 C 7.68,41.04 15.36,26.8801 15.36,26.8801 C 15.36,26.8801 23.52,31.2002 23.52,31.2002 C 28.08,33.6001 28.08,35.76 25.92,40.0801 C 25.92,40.0801 24,43.9202 24,43.9202 C 22.8,45.8401 22.32,47.52 22.32,48.96 C 22.32,48.96 30.72,53.52 30.72,53.52 C 30.72,53.52 31.44,52.3201 31.44,52.3201 C 30.24,50.8801 31.2,49.4402 32.16,47.52 C 32.16,47.52 34.32,42.96 34.32,42.96 C 36.48,38.6401 36.96,35.76 34.08,32.4001 C 38.16,33.3601 41.76,31.2002 44.16,26.8801 C 48,19.6802 45.84,14.1602 37.92,9.8401 C 37.92,9.8401 19.92,0 19.92,0 z M 24,10.5601 C 24,10.5601 33.36,15.6001 33.36,15.6001 C 37.2,17.52 37.92,20.1602 36.24,23.28 C 34.32,26.8801 31.68,27.3601 27.84,25.2002 C 27.84,25.2002 18.72,20.4001 18.72,20.4001 C 18.72,20.4001 24,10.5601 24,10.5601 z"
           id="path78" />
      </g>
      <g
         transform="translate(385.24,47.5598)"
         style="fill:#000000;fill-rule:evenodd;stroke:#000000;stroke-width:0.24000001pt;stroke-linecap:round;stroke-linejoin:round;stroke-dasharray:none"
         id="g80">
        <path
           d="M 24.72,0 C 24.72,0 0,33.5999 0,33.5999 C 0,33.5999 6.96,38.8797 6.96,38.8797 C 6.96,38.8797 31.92,5.0398 31.92,5.0398 C 31.92,5.0398 24.72,0 24.72,0 z"
           id="path82" />
      </g>
      <g
         transform="translate(398.68,61.48)"
         style="fill:#000000;fill-rule:evenodd;stroke:#000000;stroke-width:0.24000001pt;stroke-linecap:round;stroke-linejoin:round;stroke-dasharray:none"
         id="g84">
        <path
           d="M 28.8,0 C 28.8,0 0,30.24 0,30.24 C 0,30.24 6.24,36.2397 6.24,36.2397 C 6.24,36.2397 16.56,25.4399 16.56,25.4399 C 16.56,25.4399 23.04,25.4399 23.04,25.4399 C 23.04,25.4399 19.92,49.2 19.92,49.2 C 19.92,49.2 27.84,56.64 27.84,56.64 C 27.84,56.64 31.2,25.4397 31.2,25.4397 C 31.2,25.4397 55.68,25.1997 55.68,25.1997 C 55.68,25.1997 47.52,17.7597 47.52,17.7597 C 47.52,17.7597 23.04,18.4797 23.04,18.4797 C 23.04,18.4797 35.04,5.7597 35.04,5.7597 C 35.04,5.7597 28.8,0 28.8,0 C 28.8,0 28.8,0 28.8,0 z"
           id="path86" />
      </g>
      <g
         transform="translate(428.44,94.5999)"
         style="fill:#000000;fill-rule:evenodd;stroke:#000000;stroke-width:0.24000001pt;stroke-linecap:round;stroke-linejoin:round;stroke-dasharray:none"
         id="g88">
        <path
           d="M 32.4,0 C 32.4,0 0,26.1601 0,26.1601 C 0,26.1601 5.28,32.8801 5.28,32.8801 C 5.28,32.8801 37.92,6.4801 37.92,6.4801 C 37.92,6.4801 32.4,0 32.4,0 z"
           id="path90" />
      </g>
      <g
         transform="translate(438.76,112.12)"
         style="fill:#000000;fill-rule:evenodd;stroke:#000000;stroke-width:0.24000001pt;stroke-linecap:round;stroke-linejoin:round;stroke-dasharray:none"
         id="g92">
        <path
           d="M 35.28,0 C 35.28,0 0,22.08 0,22.08 C 0,22.08 16.08,48 16.08,48 C 16.08,48 22.56,43.92 22.56,43.92 C 22.56,43.92 11.04,25.44 11.04,25.44 C 11.04,25.44 39.84,7.44 39.84,7.44 C 39.84,7.44 35.28,0 35.28,0 C 35.28,0 35.28,0 35.28,0 z"
           id="path94" />
      </g>
      <g
         transform="translate(460.36,144.759)"
         style="fill:#000000;fill-rule:evenodd;stroke:#000000;stroke-width:0.24000001pt;stroke-linecap:round;stroke-linejoin:round;stroke-dasharray:none"
         id="g96">
        <path
           d="M 33.6,0.001 C 33.6,0.001 26.64,2.881 26.64,2.881 C 26.64,2.881 31.44,14.64 31.44,14.64 C 31.44,14.64 0,28.08 0,28.08 C 0,28.08 3.36,36 3.36,36 C 3.36,36 35.04,22.8 35.04,22.8 C 35.04,22.8 39.839,34.56 39.839,34.56 C 39.839,34.56 46.799,31.68 46.799,31.68 C 46.799,31.68 33.599,0 33.599,0 C 33.599,0 33.6,0.001 33.6,0.001 z"
           id="path98" />
      </g>
      <g
         transform="matrix(0.4940924,0.8694094,-0.8694094,0.4940924,499.20307,175.8257)"
         style="fill:#000000;fill-rule:evenodd;stroke:#000000;stroke-width:0.24000001pt;stroke-linecap:round;stroke-linejoin:round;stroke-dasharray:none"
         id="g2486">
        <path
           d="M 27.84,0.0005 C 27.84,0.0005 0,35.2803 0,35.2803 C 0,35.2803 8.88,37.9202 8.88,37.9202 C 8.88,37.9202 14.4,30.4803 14.4,30.4803 C 14.4,30.4803 31.44,35.76 31.44,35.76 C 31.44,35.76 31.68,44.8799 31.68,44.8799 C 31.68,44.8799 40.319,47.5198 40.319,47.5198 C 40.319,47.5198 37.44,2.8799 37.44,2.8799 C 37.44,2.8799 27.84,0 27.84,0 C 27.84,0 27.84,0.0005 27.84,0.0005 z M 30.24,8.6407 C 30.24,8.6407 30.96,28.5606 30.96,28.5606 C 30.96,28.5606 18.72,24.4807 18.72,24.4807 C 18.72,24.4807 30.24,8.6409 30.24,8.6409 C 30.24,8.6409 30.24,8.6407 30.24,8.6407 z"
           id="path2488" />
      </g>
    </g>
  </g>
</svg>
